<svg width="197" height="347" viewBox="0 0 197 347" fill="none" xmlns="http://www.w3.org/2000/svg">
<g opacity="0.05">
<path d="M6.10733 89.2182C-18.4751 0.139404 72.5874 -8.92775 138.304 17.9694C176.647 31.8023 201.827 -11.2169 249.327 5.95153C296.826 23.1199 239.884 77.2005 312.564 104.956C385.243 132.712 349.762 256.896 286.239 258.327C222.716 259.758 240.17 280.646 176.647 328.431C113.124 376.217 6.10747 309.832 32.7185 239.728C59.3295 169.624 32.7182 185.648 6.10733 89.2182Z" stroke="white" stroke-width="3"/>
<path d="M142.824 158.544C139.988 150.059 153.273 136.372 163.955 142.213C173.738 147.562 183.699 143.955 190.28 146.34C207.606 152.617 201.233 155.941 208.978 163.397C218.403 172.47 222.9 196.228 201.233 196.228C183.413 196.228 188.745 204.883 175.401 208.718C162.057 212.553 146.924 206.025 146.924 188.839C146.924 182.385 147.548 172.674 142.824 158.544Z" stroke="white" stroke-width="3"/>
<path d="M18.5343 95.0878C-4.07117 13.3357 79.9206 3.84854 140.634 28.8315C176.381 41.8931 200.178 2.45684 243.957 18.2813C288.713 34.4596 236.369 83.9259 303.145 109.836C370.074 135.893 338.227 250.948 278.509 252.249C219.141 253.55 235.493 273.326 176.532 317.116C117.571 360.906 18.9072 299.963 43.099 234.669C67.2908 170.351 43.1555 184.035 18.5343 95.0878Z" stroke="white" stroke-width="3"/>
<path d="M30.9615 100.958C10.3329 26.5324 87.254 16.6252 142.965 39.694C176.115 51.9844 198.528 16.1309 238.588 30.6114C280.601 45.7997 232.853 90.6516 293.727 114.716C354.905 139.075 326.693 245.001 270.78 246.171C215.566 247.342 230.817 266.006 176.417 305.8C122.017 345.595 31.7071 290.093 53.4797 229.61C75.2524 171.079 53.5929 182.424 30.9615 100.958Z" stroke="white" stroke-width="3"/>
<path d="M43.3887 106.828C24.737 39.7292 94.5874 29.402 145.295 50.5567C175.848 62.0758 196.878 29.8052 233.218 42.9417C272.488 57.14 229.338 97.3776 284.308 119.597C339.736 142.257 315.158 239.053 263.05 240.094C211.992 241.134 226.14 258.686 176.302 294.485C126.464 330.284 44.5069 280.224 63.8604 224.552C83.2139 171.806 64.0304 180.812 43.3887 106.828Z" stroke="white" stroke-width="3"/>
<path d="M55.816 112.698C39.1413 52.9265 101.921 42.1793 147.625 61.4198C175.583 72.1677 195.229 43.48 227.849 55.2725C264.376 68.4807 225.823 104.104 274.89 124.478C324.568 145.44 303.624 233.106 255.321 234.016C208.417 234.927 221.464 251.367 176.187 283.17C130.911 314.974 57.307 270.355 74.2413 219.494C91.1756 172.535 74.4681 179.201 55.816 112.698Z" stroke="white" stroke-width="3"/>
<path d="M68.2434 118.866C53.5456 66.4213 109.255 55.2541 149.956 72.5804C175.317 82.557 193.579 57.4522 222.479 67.9007C256.264 80.1189 222.308 111.128 265.471 129.656C309.399 148.92 292.09 227.456 247.592 228.237C204.843 229.017 216.787 244.345 176.073 272.153C135.358 299.961 70.1071 260.784 84.6222 214.733C99.1373 173.561 84.9057 177.887 68.2434 118.866Z" stroke="white" stroke-width="3"/>
<path d="M80.6711 125.386C67.9502 80.2678 116.589 68.6806 152.287 84.0928C175.051 93.2981 191.93 71.7762 217.111 80.8807C248.152 92.1089 218.793 118.504 256.054 135.187C294.23 152.752 280.556 222.158 239.863 222.809C201.269 223.459 212.111 237.675 175.958 261.487C139.806 285.3 82.9075 251.564 95.0034 210.324C107.099 174.938 95.3437 176.925 80.6711 125.386Z" stroke="white" stroke-width="3"/>
<path d="M93.099 131.925C82.355 94.1339 123.923 82.1267 154.618 95.6247C174.786 104.059 190.281 86.1197 211.742 93.8803C240.04 104.118 215.278 125.899 246.636 140.736C279.062 156.603 269.022 216.88 232.134 217.4C197.695 217.921 207.435 231.024 175.844 250.841C144.253 270.658 95.7081 242.364 105.385 205.935C115.062 176.335 105.782 175.983 93.099 131.925Z" stroke="white" stroke-width="3"/>
<path d="M105.528 138.493C96.7605 108.028 131.258 95.601 156.949 107.185C174.521 114.848 188.633 100.491 206.374 106.908C231.929 116.156 211.764 133.322 237.219 146.314C263.895 160.483 257.489 211.63 224.406 212.02C194.122 212.41 202.76 224.402 175.731 240.223C148.701 256.045 108.509 233.192 115.767 201.574C123.024 177.76 116.221 175.069 105.528 138.493Z" stroke="white" stroke-width="3"/>
<path d="M117.957 145.102C111.167 121.964 138.593 109.117 159.282 118.786C174.257 125.678 186.985 114.905 201.006 119.977C223.818 128.235 208.251 140.787 227.802 151.934C248.728 164.404 245.956 206.421 216.679 206.681C190.549 206.942 198.085 217.821 175.618 229.647C153.15 241.473 121.311 224.062 126.15 197.254C130.988 179.227 126.66 174.196 117.957 145.102Z" stroke="white" stroke-width="3"/>
<path d="M130.388 151.774C125.575 135.963 145.931 122.696 161.616 130.451C173.995 136.571 185.34 129.381 195.641 133.109C215.71 140.377 204.74 148.315 218.388 157.616C233.563 168.388 234.426 201.276 208.954 201.406C186.979 201.536 193.413 211.303 175.507 219.134C157.601 226.964 134.115 214.995 136.534 192.997C138.954 180.757 137.102 173.386 130.388 151.774Z" stroke="white" stroke-width="3"/>
</g>
</svg>
