<svg width="229" height="347" viewBox="0 0 229 347" fill="none" xmlns="http://www.w3.org/2000/svg">
<g opacity="0.05">
<path d="M-119.893 89.3795C-144.475 0.300658 -53.4126 -8.76649 12.3042 18.1307C50.647 31.9636 75.8273 -11.0556 123.327 6.11278C170.826 23.2812 113.884 77.3617 186.564 105.117C259.243 132.873 223.762 257.058 160.239 258.488C96.7156 259.919 114.17 280.807 50.647 328.593C-12.8761 376.378 -119.893 309.994 -93.2815 239.889C-66.6705 169.785 -93.2818 185.809 -119.893 89.3795Z" stroke="white" stroke-width="3"/>
<path d="M16.8241 158.705C13.9877 150.221 27.2728 136.533 37.9554 142.375C47.7376 147.724 57.699 144.116 64.2802 146.501C81.6061 152.779 75.233 156.102 82.9781 163.558C92.4029 172.631 96.9002 196.389 75.233 196.389C57.4128 196.389 62.7448 205.044 49.4009 208.879C36.057 212.714 20.924 206.186 20.924 189C20.924 182.546 21.5481 172.836 16.8241 158.705Z" stroke="white" stroke-width="3"/>
<path d="M-107.466 95.249C-130.071 13.497 -46.0794 4.00981 14.6344 28.9928C50.3808 42.0544 74.1775 2.61811 117.957 18.4425C162.713 34.6209 110.369 84.0871 177.145 109.997C244.074 136.055 212.227 251.11 152.509 252.41C93.1408 253.711 109.493 273.487 50.5319 317.277C-8.42946 361.067 -107.093 300.124 -82.901 234.83C-58.7092 170.512 -82.8445 184.197 -107.466 95.249Z" stroke="white" stroke-width="3"/>
<path d="M-95.0385 101.119C-115.667 26.6936 -38.746 16.7864 16.9647 39.8552C50.1146 52.1456 72.5279 16.2922 112.588 30.7726C154.601 45.9609 106.853 90.8129 167.727 114.878C228.905 139.236 200.693 245.162 144.78 246.332C89.5662 247.503 104.817 266.167 50.417 305.961C-3.9826 345.756 -94.2929 290.254 -72.5203 229.771C-50.7476 171.24 -72.4071 182.585 -95.0385 101.119Z" stroke="white" stroke-width="3"/>
<path d="M-82.6113 106.989C-101.263 39.8905 -31.4126 29.5633 19.2949 50.7179C49.8485 62.237 70.8782 29.9665 107.218 43.103C146.488 57.3012 103.338 97.5388 158.308 119.758C213.736 142.419 189.158 239.214 137.05 240.255C85.9916 241.295 100.14 258.847 50.3021 294.646C0.464188 330.445 -81.4931 280.385 -62.1396 224.713C-42.7861 171.968 -61.9696 180.973 -82.6113 106.989Z" stroke="white" stroke-width="3"/>
<path d="M-70.184 112.86C-86.8587 53.0878 -24.0789 42.3406 21.6255 61.5811C49.5826 72.3289 69.2287 43.6413 101.849 55.4338C138.376 68.642 99.8227 104.265 148.89 124.639C198.568 145.601 177.624 233.267 129.321 234.178C82.4172 235.088 95.4635 251.528 50.1874 283.331C4.91125 315.135 -68.693 270.516 -51.7587 219.655C-34.8244 172.696 -51.5319 179.362 -70.184 112.86Z" stroke="white" stroke-width="3"/>
<path d="M-57.7566 119.027C-72.4544 66.5825 -16.7453 55.4153 23.9559 72.7417C49.3167 82.7182 67.5793 57.6134 96.4795 68.062C130.264 80.2802 96.3076 111.289 139.471 129.818C183.399 149.081 166.09 227.618 121.592 228.398C78.8428 229.178 90.7871 244.506 50.0727 272.314C9.35831 300.122 -55.8929 260.945 -41.3778 214.894C-26.8627 173.722 -41.0943 178.048 -57.7566 119.027Z" stroke="white" stroke-width="3"/>
<path d="M-45.3289 125.547C-58.0498 80.4291 -9.41137 68.8419 26.2868 84.254C49.0511 93.4593 65.9302 71.9374 91.1105 81.042C122.152 92.2701 92.7927 118.665 130.054 135.348C168.23 152.913 154.556 222.32 113.863 222.97C75.2687 223.62 86.111 237.836 49.9583 261.648C13.8057 285.461 -43.0925 251.725 -30.9966 210.485C-18.9006 175.099 -30.6563 177.086 -45.3289 125.547Z" stroke="white" stroke-width="3"/>
<path d="M-32.901 132.087C-43.645 94.2952 -2.07723 82.288 28.6178 95.786C48.7857 104.22 64.2812 86.281 85.7418 94.0415C114.04 104.28 89.2781 126.06 120.636 140.898C153.062 156.764 143.022 217.041 106.134 217.562C71.6949 218.082 81.4351 231.185 49.8441 251.002C18.2532 270.819 -30.2919 242.525 -20.6151 206.096C-10.9384 176.496 -20.2181 176.144 -32.901 132.087Z" stroke="white" stroke-width="3"/>
<path d="M-20.4724 138.654C-29.2395 108.189 5.25756 95.7623 30.9495 107.346C48.5209 115.009 62.633 100.653 80.3736 107.069C105.929 116.317 85.7641 133.483 111.219 146.476C137.895 160.644 131.489 211.791 98.4063 212.181C68.1216 212.572 76.7598 224.563 49.7306 240.385C22.7014 256.206 -17.4906 233.354 -10.2331 201.735C-2.97552 177.922 -9.77928 175.23 -20.4724 138.654Z" stroke="white" stroke-width="3"/>
<path d="M-8.04316 145.263C-14.8333 122.125 12.5931 109.278 33.2819 118.948C48.2569 125.839 60.9854 115.066 75.0063 120.139C97.8182 128.397 82.2509 140.948 101.802 152.095C122.728 164.565 119.956 206.583 90.679 206.843C64.5491 207.103 72.0852 217.982 49.6178 229.808C27.1504 241.634 -4.68863 224.223 0.149733 197.415C4.9881 179.388 0.660284 174.357 -8.04316 145.263Z" stroke="white" stroke-width="3"/>
<path d="M4.38808 151.935C-0.425181 136.124 19.9306 122.857 35.6162 130.612C47.9949 136.733 59.3398 129.542 69.6409 133.271C89.7098 140.539 78.7396 148.476 92.3878 157.778C107.563 168.549 108.426 201.437 82.9536 201.567C60.9786 201.697 67.4127 211.464 49.507 219.295C31.6013 227.125 8.11531 215.156 10.5345 193.159C12.9537 180.918 11.1018 173.548 4.38808 151.935Z" stroke="white" stroke-width="3"/>
</g>
</svg>
